<mxfile host="app.diagrams.net" modified="2023-11-06T09:28:36.332Z" agent="Mozilla/5.0 (Windows NT 10.0; Win64; x64) AppleWebKit/537.36 (KHTML, like Gecko) Chrome/118.0.0.0 Safari/537.36" etag="X4BJPzREM77BVgRiasof" version="22.0.8" type="device">
  <diagram name="1 oldal" id="NKUjbfIIkNCAXG6hOmBV">
    <mxGraphModel dx="2261" dy="790" grid="1" gridSize="10" guides="1" tooltips="1" connect="1" arrows="1" fold="1" page="1" pageScale="1" pageWidth="827" pageHeight="1169" math="0" shadow="0">
      <root>
        <mxCell id="0" />
        <mxCell id="1" parent="0" />
        <mxCell id="3YcAJ76opa_9jH1ES2YX-13" style="edgeStyle=orthogonalEdgeStyle;rounded=0;orthogonalLoop=1;jettySize=auto;html=1;exitX=0;exitY=0.5;exitDx=0;exitDy=0;entryX=0.5;entryY=0;entryDx=0;entryDy=0;" parent="1" source="3YcAJ76opa_9jH1ES2YX-1" target="3YcAJ76opa_9jH1ES2YX-11" edge="1">
          <mxGeometry relative="1" as="geometry" />
        </mxCell>
        <mxCell id="3YcAJ76opa_9jH1ES2YX-14" style="edgeStyle=orthogonalEdgeStyle;rounded=0;orthogonalLoop=1;jettySize=auto;html=1;exitX=0.5;exitY=1;exitDx=0;exitDy=0;entryX=0.5;entryY=0;entryDx=0;entryDy=0;" parent="1" source="3YcAJ76opa_9jH1ES2YX-1" target="3YcAJ76opa_9jH1ES2YX-9" edge="1">
          <mxGeometry relative="1" as="geometry" />
        </mxCell>
        <mxCell id="3YcAJ76opa_9jH1ES2YX-15" style="edgeStyle=orthogonalEdgeStyle;rounded=0;orthogonalLoop=1;jettySize=auto;html=1;exitX=1;exitY=0.5;exitDx=0;exitDy=0;entryX=0.5;entryY=0;entryDx=0;entryDy=0;" parent="1" source="3YcAJ76opa_9jH1ES2YX-1" target="3YcAJ76opa_9jH1ES2YX-12" edge="1">
          <mxGeometry relative="1" as="geometry" />
        </mxCell>
        <mxCell id="3YcAJ76opa_9jH1ES2YX-1" value="Otthon" style="whiteSpace=wrap;html=1;align=center;" parent="1" vertex="1">
          <mxGeometry x="364" y="50" width="100" height="40" as="geometry" />
        </mxCell>
        <mxCell id="3YcAJ76opa_9jH1ES2YX-24" style="edgeStyle=orthogonalEdgeStyle;rounded=0;orthogonalLoop=1;jettySize=auto;html=1;exitX=0;exitY=1;exitDx=0;exitDy=0;entryX=0.5;entryY=0;entryDx=0;entryDy=0;startArrow=classic;startFill=1;" parent="1" source="3YcAJ76opa_9jH1ES2YX-5" target="3YcAJ76opa_9jH1ES2YX-23" edge="1">
          <mxGeometry relative="1" as="geometry" />
        </mxCell>
        <mxCell id="3YcAJ76opa_9jH1ES2YX-27" style="edgeStyle=orthogonalEdgeStyle;rounded=0;orthogonalLoop=1;jettySize=auto;html=1;exitX=0.25;exitY=1;exitDx=0;exitDy=0;entryX=0.5;entryY=0;entryDx=0;entryDy=0;startArrow=classic;startFill=1;" parent="1" source="3YcAJ76opa_9jH1ES2YX-5" target="3YcAJ76opa_9jH1ES2YX-25" edge="1">
          <mxGeometry relative="1" as="geometry" />
        </mxCell>
        <mxCell id="3YcAJ76opa_9jH1ES2YX-29" style="edgeStyle=orthogonalEdgeStyle;rounded=0;orthogonalLoop=1;jettySize=auto;html=1;exitX=0.5;exitY=1;exitDx=0;exitDy=0;entryX=0.5;entryY=0;entryDx=0;entryDy=0;startArrow=classic;startFill=1;" parent="1" source="3YcAJ76opa_9jH1ES2YX-5" target="3YcAJ76opa_9jH1ES2YX-28" edge="1">
          <mxGeometry relative="1" as="geometry" />
        </mxCell>
        <mxCell id="3YcAJ76opa_9jH1ES2YX-5" value="VÃ¡ros" style="whiteSpace=wrap;html=1;align=center;" parent="1" vertex="1">
          <mxGeometry x="219" y="270" width="100" height="40" as="geometry" />
        </mxCell>
        <mxCell id="3YcAJ76opa_9jH1ES2YX-33" style="edgeStyle=orthogonalEdgeStyle;rounded=0;orthogonalLoop=1;jettySize=auto;html=1;exitX=0;exitY=1;exitDx=0;exitDy=0;entryX=0.5;entryY=0;entryDx=0;entryDy=0;startArrow=classic;startFill=1;" parent="1" source="3YcAJ76opa_9jH1ES2YX-6" target="3YcAJ76opa_9jH1ES2YX-32" edge="1">
          <mxGeometry relative="1" as="geometry" />
        </mxCell>
        <mxCell id="3YcAJ76opa_9jH1ES2YX-49" style="edgeStyle=orthogonalEdgeStyle;rounded=0;orthogonalLoop=1;jettySize=auto;html=1;exitX=0.5;exitY=1;exitDx=0;exitDy=0;entryX=0.5;entryY=0;entryDx=0;entryDy=0;startArrow=classic;startFill=1;" parent="1" source="3YcAJ76opa_9jH1ES2YX-6" target="3YcAJ76opa_9jH1ES2YX-34" edge="1">
          <mxGeometry relative="1" as="geometry" />
        </mxCell>
        <mxCell id="3YcAJ76opa_9jH1ES2YX-52" style="edgeStyle=orthogonalEdgeStyle;rounded=0;orthogonalLoop=1;jettySize=auto;html=1;exitX=1;exitY=1;exitDx=0;exitDy=0;entryX=0.75;entryY=0;entryDx=0;entryDy=0;startArrow=classic;startFill=1;" parent="1" source="3YcAJ76opa_9jH1ES2YX-6" target="3YcAJ76opa_9jH1ES2YX-36" edge="1">
          <mxGeometry relative="1" as="geometry" />
        </mxCell>
        <mxCell id="3YcAJ76opa_9jH1ES2YX-6" value="Falu" style="whiteSpace=wrap;html=1;align=center;" parent="1" vertex="1">
          <mxGeometry x="363" y="270" width="100" height="40" as="geometry" />
        </mxCell>
        <mxCell id="3YcAJ76opa_9jH1ES2YX-46" style="edgeStyle=orthogonalEdgeStyle;rounded=0;orthogonalLoop=1;jettySize=auto;html=1;exitX=1;exitY=1;exitDx=0;exitDy=0;entryX=0.5;entryY=0;entryDx=0;entryDy=0;" parent="1" target="3YcAJ76opa_9jH1ES2YX-45" edge="1">
          <mxGeometry relative="1" as="geometry">
            <mxPoint x="610" y="310" as="sourcePoint" />
          </mxGeometry>
        </mxCell>
        <mxCell id="3YcAJ76opa_9jH1ES2YX-47" style="edgeStyle=orthogonalEdgeStyle;rounded=0;orthogonalLoop=1;jettySize=auto;html=1;exitX=0.75;exitY=1;exitDx=0;exitDy=0;entryX=0.5;entryY=0;entryDx=0;entryDy=0;" parent="1" target="3YcAJ76opa_9jH1ES2YX-44" edge="1">
          <mxGeometry relative="1" as="geometry">
            <mxPoint x="585" y="310" as="sourcePoint" />
          </mxGeometry>
        </mxCell>
        <mxCell id="3YcAJ76opa_9jH1ES2YX-48" style="edgeStyle=orthogonalEdgeStyle;rounded=0;orthogonalLoop=1;jettySize=auto;html=1;exitX=0.5;exitY=1;exitDx=0;exitDy=0;entryX=0.5;entryY=0;entryDx=0;entryDy=0;" parent="1" target="3YcAJ76opa_9jH1ES2YX-43" edge="1">
          <mxGeometry relative="1" as="geometry">
            <mxPoint x="560" y="310" as="sourcePoint" />
          </mxGeometry>
        </mxCell>
        <mxCell id="3YcAJ76opa_9jH1ES2YX-17" style="edgeStyle=orthogonalEdgeStyle;rounded=0;orthogonalLoop=1;jettySize=auto;html=1;exitX=1;exitY=1;exitDx=0;exitDy=0;entryX=0.5;entryY=0;entryDx=0;entryDy=0;" parent="1" source="3YcAJ76opa_9jH1ES2YX-9" edge="1">
          <mxGeometry relative="1" as="geometry">
            <mxPoint x="560" y="270" as="targetPoint" />
            <Array as="points">
              <mxPoint x="444" y="190" />
              <mxPoint x="560" y="190" />
            </Array>
          </mxGeometry>
        </mxCell>
        <mxCell id="3YcAJ76opa_9jH1ES2YX-21" style="edgeStyle=orthogonalEdgeStyle;rounded=0;orthogonalLoop=1;jettySize=auto;html=1;exitX=0;exitY=1;exitDx=0;exitDy=0;entryX=0.75;entryY=0;entryDx=0;entryDy=0;" parent="1" source="3YcAJ76opa_9jH1ES2YX-9" target="3YcAJ76opa_9jH1ES2YX-5" edge="1">
          <mxGeometry relative="1" as="geometry">
            <Array as="points">
              <mxPoint x="384" y="190" />
              <mxPoint x="294" y="190" />
            </Array>
          </mxGeometry>
        </mxCell>
        <mxCell id="3YcAJ76opa_9jH1ES2YX-9" value="Kocsi" style="shape=rhombus;perimeter=rhombusPerimeter;whiteSpace=wrap;html=1;align=center;" parent="1" vertex="1">
          <mxGeometry x="354" y="110" width="120" height="60" as="geometry" />
        </mxCell>
        <mxCell id="3YcAJ76opa_9jH1ES2YX-19" style="edgeStyle=orthogonalEdgeStyle;rounded=0;orthogonalLoop=1;jettySize=auto;html=1;exitX=1;exitY=1;exitDx=0;exitDy=0;entryX=0.5;entryY=0;entryDx=0;entryDy=0;" parent="1" source="3YcAJ76opa_9jH1ES2YX-11" target="3YcAJ76opa_9jH1ES2YX-6" edge="1">
          <mxGeometry relative="1" as="geometry">
            <Array as="points">
              <mxPoint x="340" y="155" />
              <mxPoint x="340" y="220" />
              <mxPoint x="413" y="220" />
            </Array>
          </mxGeometry>
        </mxCell>
        <mxCell id="3YcAJ76opa_9jH1ES2YX-22" style="edgeStyle=orthogonalEdgeStyle;rounded=0;orthogonalLoop=1;jettySize=auto;html=1;exitX=0;exitY=1;exitDx=0;exitDy=0;entryX=0;entryY=0;entryDx=0;entryDy=0;" parent="1" source="3YcAJ76opa_9jH1ES2YX-11" target="3YcAJ76opa_9jH1ES2YX-5" edge="1">
          <mxGeometry relative="1" as="geometry">
            <Array as="points">
              <mxPoint x="200" y="155" />
              <mxPoint x="200" y="220" />
              <mxPoint x="219" y="220" />
            </Array>
          </mxGeometry>
        </mxCell>
        <mxCell id="3YcAJ76opa_9jH1ES2YX-11" value="Busz" style="shape=rhombus;perimeter=rhombusPerimeter;whiteSpace=wrap;html=1;align=center;" parent="1" vertex="1">
          <mxGeometry x="210" y="110" width="120" height="60" as="geometry" />
        </mxCell>
        <mxCell id="3YcAJ76opa_9jH1ES2YX-20" style="edgeStyle=orthogonalEdgeStyle;rounded=0;orthogonalLoop=1;jettySize=auto;html=1;exitX=0;exitY=1;exitDx=0;exitDy=0;entryX=0.5;entryY=0;entryDx=0;entryDy=0;" parent="1" source="3YcAJ76opa_9jH1ES2YX-12" target="3YcAJ76opa_9jH1ES2YX-6" edge="1">
          <mxGeometry relative="1" as="geometry">
            <Array as="points">
              <mxPoint x="480" y="155" />
              <mxPoint x="480" y="220" />
              <mxPoint x="413" y="220" />
            </Array>
          </mxGeometry>
        </mxCell>
        <mxCell id="3YcAJ76opa_9jH1ES2YX-12" value="Bicikli" style="shape=rhombus;perimeter=rhombusPerimeter;whiteSpace=wrap;html=1;align=center;" parent="1" vertex="1">
          <mxGeometry x="500" y="110" width="120" height="60" as="geometry" />
        </mxCell>
        <mxCell id="3YcAJ76opa_9jH1ES2YX-58" style="edgeStyle=orthogonalEdgeStyle;rounded=0;orthogonalLoop=1;jettySize=auto;html=1;exitX=0;exitY=1;exitDx=0;exitDy=0;entryX=0.5;entryY=0;entryDx=0;entryDy=0;" parent="1" source="3YcAJ76opa_9jH1ES2YX-23" edge="1">
          <mxGeometry relative="1" as="geometry">
            <mxPoint x="-400" y="545" as="targetPoint" />
            <Array as="points">
              <mxPoint x="-250" y="490" />
              <mxPoint x="-400" y="490" />
            </Array>
          </mxGeometry>
        </mxCell>
        <mxCell id="3YcAJ76opa_9jH1ES2YX-59" style="edgeStyle=orthogonalEdgeStyle;rounded=0;orthogonalLoop=1;jettySize=auto;html=1;exitX=0.5;exitY=1;exitDx=0;exitDy=0;entryX=0.5;entryY=0;entryDx=0;entryDy=0;dashed=1;fillColor=#cdeb8b;strokeColor=#00ff00;" parent="1" source="3YcAJ76opa_9jH1ES2YX-23" edge="1">
          <mxGeometry relative="1" as="geometry">
            <mxPoint x="-279.9999999999998" y="545" as="targetPoint" />
          </mxGeometry>
        </mxCell>
        <mxCell id="3YcAJ76opa_9jH1ES2YX-119" value="40%" style="edgeLabel;html=1;align=center;verticalAlign=middle;resizable=0;points=[];" parent="3YcAJ76opa_9jH1ES2YX-59" vertex="1" connectable="0">
          <mxGeometry x="0.2875" y="2" relative="1" as="geometry">
            <mxPoint as="offset" />
          </mxGeometry>
        </mxCell>
        <mxCell id="3YcAJ76opa_9jH1ES2YX-23" value="SzÃ³rakozÃ³hely" style="whiteSpace=wrap;html=1;align=center;gradientColor=none;perimeterSpacing=0;glass=0;" parent="1" vertex="1">
          <mxGeometry x="-250" y="440" width="100" height="40" as="geometry" />
        </mxCell>
        <mxCell id="3YcAJ76opa_9jH1ES2YX-137" style="edgeStyle=orthogonalEdgeStyle;rounded=0;orthogonalLoop=1;jettySize=auto;html=1;exitX=0.5;exitY=1;exitDx=0;exitDy=0;entryX=0.5;entryY=0;entryDx=0;entryDy=0;startArrow=classic;startFill=1;" parent="1" source="3YcAJ76opa_9jH1ES2YX-25" target="3YcAJ76opa_9jH1ES2YX-136" edge="1">
          <mxGeometry relative="1" as="geometry" />
        </mxCell>
        <mxCell id="3YcAJ76opa_9jH1ES2YX-25" value="Kocsma" style="whiteSpace=wrap;html=1;align=center;" parent="1" vertex="1">
          <mxGeometry x="-140" y="440" width="100" height="40" as="geometry" />
        </mxCell>
        <mxCell id="3YcAJ76opa_9jH1ES2YX-132" style="edgeStyle=orthogonalEdgeStyle;rounded=0;orthogonalLoop=1;jettySize=auto;html=1;exitX=0.5;exitY=1;exitDx=0;exitDy=0;entryX=0.5;entryY=0;entryDx=0;entryDy=0;dashed=1;fillColor=#d5e8d4;strokeColor=#82b366;" parent="1" source="3YcAJ76opa_9jH1ES2YX-28" target="3YcAJ76opa_9jH1ES2YX-130" edge="1">
          <mxGeometry relative="1" as="geometry" />
        </mxCell>
        <mxCell id="3YcAJ76opa_9jH1ES2YX-133" value="70%" style="edgeLabel;html=1;align=center;verticalAlign=middle;resizable=0;points=[];" parent="3YcAJ76opa_9jH1ES2YX-132" vertex="1" connectable="0">
          <mxGeometry x="-0.0364" y="1" relative="1" as="geometry">
            <mxPoint as="offset" />
          </mxGeometry>
        </mxCell>
        <mxCell id="3YcAJ76opa_9jH1ES2YX-28" value="Supermarket" style="whiteSpace=wrap;html=1;align=center;" parent="1" vertex="1">
          <mxGeometry x="-30" y="440" width="100" height="40" as="geometry" />
        </mxCell>
        <mxCell id="3YcAJ76opa_9jH1ES2YX-82" style="edgeStyle=orthogonalEdgeStyle;rounded=0;orthogonalLoop=1;jettySize=auto;html=1;exitX=0.5;exitY=1;exitDx=0;exitDy=0;entryX=0;entryY=0;entryDx=0;entryDy=0;dashed=1;fillColor=#ffe6cc;strokeColor=#d79b00;" parent="1" source="3YcAJ76opa_9jH1ES2YX-32" target="3YcAJ76opa_9jH1ES2YX-81" edge="1">
          <mxGeometry relative="1" as="geometry">
            <Array as="points">
              <mxPoint x="290" y="600" />
              <mxPoint x="400" y="600" />
            </Array>
          </mxGeometry>
        </mxCell>
        <mxCell id="3YcAJ76opa_9jH1ES2YX-85" value="23 - 0" style="edgeLabel;html=1;align=center;verticalAlign=middle;resizable=0;points=[];" parent="3YcAJ76opa_9jH1ES2YX-82" vertex="1" connectable="0">
          <mxGeometry x="-0.3214" y="4" relative="1" as="geometry">
            <mxPoint as="offset" />
          </mxGeometry>
        </mxCell>
        <mxCell id="3YcAJ76opa_9jH1ES2YX-141" style="edgeStyle=orthogonalEdgeStyle;rounded=0;orthogonalLoop=1;jettySize=auto;html=1;entryX=0.5;entryY=0;entryDx=0;entryDy=0;" parent="1" source="3YcAJ76opa_9jH1ES2YX-32" target="3YcAJ76opa_9jH1ES2YX-140" edge="1">
          <mxGeometry relative="1" as="geometry">
            <mxPoint x="230" y="640" as="targetPoint" />
            <Array as="points">
              <mxPoint x="220" y="460" />
              <mxPoint x="220" y="550" />
              <mxPoint x="230" y="550" />
            </Array>
          </mxGeometry>
        </mxCell>
        <mxCell id="3YcAJ76opa_9jH1ES2YX-32" value="Sarki bolt" style="whiteSpace=wrap;html=1;align=center;" parent="1" vertex="1">
          <mxGeometry x="240" y="440" width="100" height="40" as="geometry" />
        </mxCell>
        <mxCell id="3YcAJ76opa_9jH1ES2YX-83" style="edgeStyle=orthogonalEdgeStyle;rounded=0;orthogonalLoop=1;jettySize=auto;html=1;exitX=0.5;exitY=1;exitDx=0;exitDy=0;entryX=0.33;entryY=-0.025;entryDx=0;entryDy=0;dashed=1;entryPerimeter=0;fillColor=#ffe6cc;strokeColor=#d79b00;" parent="1" source="3YcAJ76opa_9jH1ES2YX-34" target="3YcAJ76opa_9jH1ES2YX-81" edge="1">
          <mxGeometry relative="1" as="geometry">
            <Array as="points">
              <mxPoint x="400" y="580" />
              <mxPoint x="470" y="580" />
              <mxPoint x="470" y="629" />
            </Array>
          </mxGeometry>
        </mxCell>
        <mxCell id="3YcAJ76opa_9jH1ES2YX-86" value="23 - 0" style="edgeLabel;html=1;align=center;verticalAlign=middle;resizable=0;points=[];" parent="3YcAJ76opa_9jH1ES2YX-83" vertex="1" connectable="0">
          <mxGeometry x="0.3536" y="3" relative="1" as="geometry">
            <mxPoint as="offset" />
          </mxGeometry>
        </mxCell>
        <mxCell id="3YcAJ76opa_9jH1ES2YX-34" value="Haverok" style="whiteSpace=wrap;html=1;align=center;" parent="1" vertex="1">
          <mxGeometry x="350" y="440" width="100" height="40" as="geometry" />
        </mxCell>
        <mxCell id="3YcAJ76opa_9jH1ES2YX-84" style="edgeStyle=orthogonalEdgeStyle;rounded=0;orthogonalLoop=1;jettySize=auto;html=1;exitX=0;exitY=1;exitDx=0;exitDy=0;entryX=1;entryY=0.5;entryDx=0;entryDy=0;dashed=1;fillColor=#ffe6cc;strokeColor=#d79b00;" parent="1" source="3YcAJ76opa_9jH1ES2YX-36" target="3YcAJ76opa_9jH1ES2YX-81" edge="1">
          <mxGeometry relative="1" as="geometry" />
        </mxCell>
        <mxCell id="3YcAJ76opa_9jH1ES2YX-87" value="23 - 0" style="edgeLabel;html=1;align=center;verticalAlign=middle;resizable=0;points=[];" parent="3YcAJ76opa_9jH1ES2YX-84" vertex="1" connectable="0">
          <mxGeometry x="-0.2343" y="3" relative="1" as="geometry">
            <mxPoint as="offset" />
          </mxGeometry>
        </mxCell>
        <mxCell id="3YcAJ76opa_9jH1ES2YX-146" style="edgeStyle=orthogonalEdgeStyle;rounded=0;orthogonalLoop=1;jettySize=auto;html=1;exitX=1;exitY=0.5;exitDx=0;exitDy=0;entryX=0.5;entryY=0;entryDx=0;entryDy=0;" parent="1" source="3YcAJ76opa_9jH1ES2YX-36" target="3YcAJ76opa_9jH1ES2YX-145" edge="1">
          <mxGeometry relative="1" as="geometry" />
        </mxCell>
        <mxCell id="3YcAJ76opa_9jH1ES2YX-36" value="Falusi kocsma" style="whiteSpace=wrap;html=1;align=center;" parent="1" vertex="1">
          <mxGeometry x="460" y="440" width="100" height="40" as="geometry" />
        </mxCell>
        <mxCell id="3YcAJ76opa_9jH1ES2YX-164" style="edgeStyle=orthogonalEdgeStyle;rounded=0;orthogonalLoop=1;jettySize=auto;html=1;entryX=0.5;entryY=0;entryDx=0;entryDy=0;startArrow=none;startFill=0;" parent="1" source="3YcAJ76opa_9jH1ES2YX-43" target="3YcAJ76opa_9jH1ES2YX-162" edge="1">
          <mxGeometry relative="1" as="geometry">
            <Array as="points">
              <mxPoint x="1010" y="515" />
              <mxPoint x="940" y="515" />
            </Array>
          </mxGeometry>
        </mxCell>
        <mxCell id="3YcAJ76opa_9jH1ES2YX-43" value="CsehorszÃ¡g" style="whiteSpace=wrap;html=1;align=center;" parent="1" vertex="1">
          <mxGeometry x="980" y="440" width="100" height="40" as="geometry" />
        </mxCell>
        <mxCell id="cASwnKAZ-W6fKyCNoYo4-20" style="edgeStyle=orthogonalEdgeStyle;rounded=0;orthogonalLoop=1;jettySize=auto;html=1;entryX=1;entryY=0;entryDx=0;entryDy=0;exitX=0.5;exitY=1;exitDx=0;exitDy=0;" parent="1" source="3YcAJ76opa_9jH1ES2YX-44" target="3YcAJ76opa_9jH1ES2YX-159" edge="1">
          <mxGeometry relative="1" as="geometry">
            <Array as="points">
              <mxPoint x="1160" y="510" />
              <mxPoint x="1390" y="510" />
              <mxPoint x="1390" y="250" />
              <mxPoint x="590" y="250" />
            </Array>
          </mxGeometry>
        </mxCell>
        <mxCell id="3YcAJ76opa_9jH1ES2YX-44" value="SzlovÃ¡kia" style="whiteSpace=wrap;html=1;align=center;" parent="1" vertex="1">
          <mxGeometry x="1110" y="440" width="100" height="40" as="geometry" />
        </mxCell>
        <mxCell id="cASwnKAZ-W6fKyCNoYo4-22" style="edgeStyle=orthogonalEdgeStyle;rounded=0;orthogonalLoop=1;jettySize=auto;html=1;entryX=0.5;entryY=0;entryDx=0;entryDy=0;" parent="1" source="3YcAJ76opa_9jH1ES2YX-45" target="cASwnKAZ-W6fKyCNoYo4-21" edge="1">
          <mxGeometry relative="1" as="geometry" />
        </mxCell>
        <mxCell id="cASwnKAZ-W6fKyCNoYo4-32" style="edgeStyle=orthogonalEdgeStyle;rounded=0;orthogonalLoop=1;jettySize=auto;html=1;exitX=0.75;exitY=1;exitDx=0;exitDy=0;entryX=0.25;entryY=0;entryDx=0;entryDy=0;" parent="1" source="3YcAJ76opa_9jH1ES2YX-45" target="cASwnKAZ-W6fKyCNoYo4-30" edge="1">
          <mxGeometry relative="1" as="geometry">
            <Array as="points">
              <mxPoint x="1305" y="530" />
              <mxPoint x="1395" y="530" />
            </Array>
          </mxGeometry>
        </mxCell>
        <mxCell id="3YcAJ76opa_9jH1ES2YX-45" value="Szerbia" style="whiteSpace=wrap;html=1;align=center;" parent="1" vertex="1">
          <mxGeometry x="1230" y="440" width="100" height="40" as="geometry" />
        </mxCell>
        <mxCell id="3YcAJ76opa_9jH1ES2YX-99" style="edgeStyle=orthogonalEdgeStyle;rounded=0;orthogonalLoop=1;jettySize=auto;html=1;exitX=0;exitY=0.5;exitDx=0;exitDy=0;entryX=1;entryY=0.5;entryDx=0;entryDy=0;" parent="1" target="3YcAJ76opa_9jH1ES2YX-98" edge="1">
          <mxGeometry relative="1" as="geometry">
            <mxPoint x="-449.9999999999998" y="565" as="sourcePoint" />
          </mxGeometry>
        </mxCell>
        <mxCell id="3YcAJ76opa_9jH1ES2YX-104" style="edgeStyle=orthogonalEdgeStyle;rounded=0;orthogonalLoop=1;jettySize=auto;html=1;exitX=0.25;exitY=0;exitDx=0;exitDy=0;endArrow=none;endFill=0;shadow=1;dashed=1;entryX=0.5;entryY=1;entryDx=0;entryDy=0;fillColor=#f8cecc;strokeColor=#ff0800;" parent="1" target="3YcAJ76opa_9jH1ES2YX-109" edge="1">
          <mxGeometry relative="1" as="geometry">
            <mxPoint x="-422.0000000000002" y="402" as="targetPoint" />
            <mxPoint x="-424.9999999999998" y="545" as="sourcePoint" />
          </mxGeometry>
        </mxCell>
        <mxCell id="3YcAJ76opa_9jH1ES2YX-105" value="40%" style="edgeLabel;html=1;align=center;verticalAlign=middle;resizable=0;points=[];" parent="3YcAJ76opa_9jH1ES2YX-104" vertex="1" connectable="0">
          <mxGeometry x="-0.0185" y="-2" relative="1" as="geometry">
            <mxPoint x="2" y="-1" as="offset" />
          </mxGeometry>
        </mxCell>
        <mxCell id="3YcAJ76opa_9jH1ES2YX-116" style="edgeStyle=orthogonalEdgeStyle;rounded=0;orthogonalLoop=1;jettySize=auto;html=1;exitX=0;exitY=1;exitDx=0;exitDy=0;entryX=0.5;entryY=0;entryDx=0;entryDy=0;" parent="1" source="3YcAJ76opa_9jH1ES2YX-161" target="3YcAJ76opa_9jH1ES2YX-115" edge="1">
          <mxGeometry relative="1" as="geometry">
            <mxPoint x="-279.9999999999998" y="585" as="sourcePoint" />
            <Array as="points">
              <mxPoint x="-310" y="660" />
              <mxPoint x="-580" y="660" />
            </Array>
          </mxGeometry>
        </mxCell>
        <mxCell id="3YcAJ76opa_9jH1ES2YX-63" style="edgeStyle=orthogonalEdgeStyle;rounded=0;orthogonalLoop=1;jettySize=auto;html=1;exitX=0.25;exitY=1;exitDx=0;exitDy=0;entryX=0.75;entryY=1;entryDx=0;entryDy=0;" parent="1" source="3YcAJ76opa_9jH1ES2YX-23" target="3YcAJ76opa_9jH1ES2YX-23" edge="1">
          <mxGeometry relative="1" as="geometry">
            <Array as="points">
              <mxPoint x="-225" y="500" />
              <mxPoint x="-175" y="500" />
            </Array>
          </mxGeometry>
        </mxCell>
        <mxCell id="3YcAJ76opa_9jH1ES2YX-64" style="edgeStyle=orthogonalEdgeStyle;rounded=0;orthogonalLoop=1;jettySize=auto;html=1;exitX=0.25;exitY=1;exitDx=0;exitDy=0;entryX=0.75;entryY=1;entryDx=0;entryDy=0;" parent="1" source="3YcAJ76opa_9jH1ES2YX-25" target="3YcAJ76opa_9jH1ES2YX-25" edge="1">
          <mxGeometry relative="1" as="geometry" />
        </mxCell>
        <mxCell id="3YcAJ76opa_9jH1ES2YX-65" style="edgeStyle=orthogonalEdgeStyle;rounded=0;orthogonalLoop=1;jettySize=auto;html=1;exitX=0.25;exitY=1;exitDx=0;exitDy=0;entryX=0.75;entryY=1;entryDx=0;entryDy=0;" parent="1" source="3YcAJ76opa_9jH1ES2YX-28" target="3YcAJ76opa_9jH1ES2YX-28" edge="1">
          <mxGeometry relative="1" as="geometry" />
        </mxCell>
        <mxCell id="3YcAJ76opa_9jH1ES2YX-66" style="edgeStyle=orthogonalEdgeStyle;rounded=0;orthogonalLoop=1;jettySize=auto;html=1;exitX=0.25;exitY=1;exitDx=0;exitDy=0;entryX=0.75;entryY=1;entryDx=0;entryDy=0;" parent="1" source="3YcAJ76opa_9jH1ES2YX-32" target="3YcAJ76opa_9jH1ES2YX-32" edge="1">
          <mxGeometry relative="1" as="geometry" />
        </mxCell>
        <mxCell id="3YcAJ76opa_9jH1ES2YX-67" style="edgeStyle=orthogonalEdgeStyle;rounded=0;orthogonalLoop=1;jettySize=auto;html=1;exitX=0.25;exitY=1;exitDx=0;exitDy=0;entryX=0.75;entryY=1;entryDx=0;entryDy=0;" parent="1" source="3YcAJ76opa_9jH1ES2YX-34" target="3YcAJ76opa_9jH1ES2YX-34" edge="1">
          <mxGeometry relative="1" as="geometry" />
        </mxCell>
        <mxCell id="3YcAJ76opa_9jH1ES2YX-68" style="edgeStyle=orthogonalEdgeStyle;rounded=0;orthogonalLoop=1;jettySize=auto;html=1;exitX=0.25;exitY=1;exitDx=0;exitDy=0;entryX=0.75;entryY=1;entryDx=0;entryDy=0;" parent="1" source="3YcAJ76opa_9jH1ES2YX-36" target="3YcAJ76opa_9jH1ES2YX-36" edge="1">
          <mxGeometry relative="1" as="geometry" />
        </mxCell>
        <mxCell id="3YcAJ76opa_9jH1ES2YX-72" style="edgeStyle=orthogonalEdgeStyle;rounded=0;orthogonalLoop=1;jettySize=auto;html=1;exitX=0.5;exitY=1;exitDx=0;exitDy=0;entryX=0.5;entryY=0;entryDx=0;entryDy=0;" parent="1" source="3YcAJ76opa_9jH1ES2YX-71" target="3YcAJ76opa_9jH1ES2YX-90" edge="1">
          <mxGeometry relative="1" as="geometry">
            <mxPoint x="-179.99999999999977" y="920" as="targetPoint" />
          </mxGeometry>
        </mxCell>
        <mxCell id="3YcAJ76opa_9jH1ES2YX-75" style="edgeStyle=orthogonalEdgeStyle;rounded=0;orthogonalLoop=1;jettySize=auto;html=1;startArrow=classic;startFill=1;endArrow=none;endFill=0;dashed=1;" parent="1" source="3YcAJ76opa_9jH1ES2YX-71" edge="1">
          <mxGeometry relative="1" as="geometry">
            <mxPoint x="-179.99999999999977" y="500" as="targetPoint" />
          </mxGeometry>
        </mxCell>
        <mxCell id="3YcAJ76opa_9jH1ES2YX-76" value="20% esÃ©ly" style="edgeLabel;html=1;align=center;verticalAlign=middle;resizable=0;points=[];" parent="3YcAJ76opa_9jH1ES2YX-75" vertex="1" connectable="0">
          <mxGeometry x="0.3907" relative="1" as="geometry">
            <mxPoint as="offset" />
          </mxGeometry>
        </mxCell>
        <mxCell id="3YcAJ76opa_9jH1ES2YX-71" value="FantÃ¡ziavilÃ¡g &lt;br&gt;(5 hely)" style="whiteSpace=wrap;html=1;align=center;" parent="1" vertex="1">
          <mxGeometry x="-230" y="725" width="100" height="40" as="geometry" />
        </mxCell>
        <mxCell id="3YcAJ76opa_9jH1ES2YX-78" style="edgeStyle=orthogonalEdgeStyle;rounded=0;orthogonalLoop=1;jettySize=auto;html=1;endArrow=none;endFill=0;startArrow=classic;startFill=1;dashed=1;exitX=0.5;exitY=0;exitDx=0;exitDy=0;fillColor=#f8cecc;strokeColor=#b85450;" parent="1" source="3YcAJ76opa_9jH1ES2YX-91" edge="1">
          <mxGeometry relative="1" as="geometry">
            <mxPoint x="-219.99999999999977" y="500" as="targetPoint" />
            <mxPoint x="-430" y="760" as="sourcePoint" />
            <Array as="points">
              <mxPoint x="-350" y="710" />
              <mxPoint x="-270" y="710" />
              <mxPoint x="-270" y="631" />
              <mxPoint x="-200" y="631" />
              <mxPoint x="-200" y="500" />
            </Array>
          </mxGeometry>
        </mxCell>
        <mxCell id="3YcAJ76opa_9jH1ES2YX-79" value="vÃ©ralk &amp;gt;=5 ezrelÃ©k&lt;br&gt;" style="edgeLabel;html=1;align=center;verticalAlign=middle;resizable=0;points=[];" parent="3YcAJ76opa_9jH1ES2YX-78" vertex="1" connectable="0">
          <mxGeometry x="-0.5083" y="1" relative="1" as="geometry">
            <mxPoint as="offset" />
          </mxGeometry>
        </mxCell>
        <mxCell id="3YcAJ76opa_9jH1ES2YX-80" value="" style="endArrow=none;html=1;rounded=0;dashed=1;endFill=0;startArrow=classic;startFill=1;fillColor=#e51400;strokeColor=#ff0000;" parent="1" edge="1">
          <mxGeometry relative="1" as="geometry">
            <mxPoint x="-200" y="540" as="sourcePoint" />
            <mxPoint x="530" y="500" as="targetPoint" />
            <Array as="points">
              <mxPoint x="-140" y="520" />
              <mxPoint x="-140" y="500" />
            </Array>
          </mxGeometry>
        </mxCell>
        <mxCell id="3YcAJ76opa_9jH1ES2YX-88" value="HalÃ¡lba vezetÅ Ãºt" style="edgeLabel;html=1;align=center;verticalAlign=middle;resizable=0;points=[];" parent="3YcAJ76opa_9jH1ES2YX-80" vertex="1" connectable="0">
          <mxGeometry x="-0.0067" y="-2" relative="1" as="geometry">
            <mxPoint as="offset" />
          </mxGeometry>
        </mxCell>
        <mxCell id="3YcAJ76opa_9jH1ES2YX-94" style="edgeStyle=orthogonalEdgeStyle;rounded=0;orthogonalLoop=1;jettySize=auto;html=1;exitX=0.5;exitY=1;exitDx=0;exitDy=0;entryX=0.5;entryY=0;entryDx=0;entryDy=0;" parent="1" source="3YcAJ76opa_9jH1ES2YX-81" target="3YcAJ76opa_9jH1ES2YX-93" edge="1">
          <mxGeometry relative="1" as="geometry" />
        </mxCell>
        <mxCell id="3YcAJ76opa_9jH1ES2YX-150" style="edgeStyle=orthogonalEdgeStyle;rounded=0;orthogonalLoop=1;jettySize=auto;html=1;exitX=0.75;exitY=1;exitDx=0;exitDy=0;entryX=0;entryY=1;entryDx=0;entryDy=0;dashed=1;fillColor=#ffe6cc;strokeColor=#d79b00;" parent="1" source="3YcAJ76opa_9jH1ES2YX-81" target="3YcAJ76opa_9jH1ES2YX-145" edge="1">
          <mxGeometry relative="1" as="geometry" />
        </mxCell>
        <mxCell id="3YcAJ76opa_9jH1ES2YX-152" value="vÃ©ralk &amp;gt;= 2 ezrelÃ©k" style="edgeLabel;html=1;align=center;verticalAlign=middle;resizable=0;points=[];" parent="3YcAJ76opa_9jH1ES2YX-150" vertex="1" connectable="0">
          <mxGeometry x="-0.4387" y="-2" relative="1" as="geometry">
            <mxPoint as="offset" />
          </mxGeometry>
        </mxCell>
        <mxCell id="3YcAJ76opa_9jH1ES2YX-81" value="Templom (Ã©jfÃ©li mise)" style="whiteSpace=wrap;html=1;align=center;" parent="1" vertex="1">
          <mxGeometry x="450" y="630" width="100" height="40" as="geometry" />
        </mxCell>
        <mxCell id="3YcAJ76opa_9jH1ES2YX-90" value="Felkelsz az Ã¡rokban" style="shape=ext;margin=3;double=1;whiteSpace=wrap;html=1;align=center;" parent="1" vertex="1">
          <mxGeometry x="-230" y="920" width="100" height="40" as="geometry" />
        </mxCell>
        <mxCell id="3YcAJ76opa_9jH1ES2YX-91" value="HalÃ¡l (pokol)" style="shape=ext;margin=3;double=1;whiteSpace=wrap;html=1;align=center;" parent="1" vertex="1">
          <mxGeometry x="-400" y="920" width="100" height="40" as="geometry" />
        </mxCell>
        <mxCell id="3YcAJ76opa_9jH1ES2YX-93" value="HazamÃ©sz (megtÃ©rtÃ©l)" style="shape=ext;margin=3;double=1;whiteSpace=wrap;html=1;align=center;" parent="1" vertex="1">
          <mxGeometry x="450" y="920" width="100" height="40" as="geometry" />
        </mxCell>
        <mxCell id="3YcAJ76opa_9jH1ES2YX-112" style="edgeStyle=orthogonalEdgeStyle;rounded=0;orthogonalLoop=1;jettySize=auto;html=1;exitX=0;exitY=1;exitDx=0;exitDy=0;entryX=0.5;entryY=0;entryDx=0;entryDy=0;" parent="1" source="3YcAJ76opa_9jH1ES2YX-98" target="3YcAJ76opa_9jH1ES2YX-111" edge="1">
          <mxGeometry relative="1" as="geometry" />
        </mxCell>
        <mxCell id="3YcAJ76opa_9jH1ES2YX-98" value="CigiszagÃº panel" style="whiteSpace=wrap;html=1;align=center;" parent="1" vertex="1">
          <mxGeometry x="-710" y="545" width="100" height="40" as="geometry" />
        </mxCell>
        <mxCell id="3YcAJ76opa_9jH1ES2YX-108" style="edgeStyle=orthogonalEdgeStyle;rounded=0;orthogonalLoop=1;jettySize=auto;html=1;entryX=0.5;entryY=0;entryDx=0;entryDy=0;exitX=0;exitY=0.5;exitDx=0;exitDy=0;" parent="1" source="3YcAJ76opa_9jH1ES2YX-109" target="3YcAJ76opa_9jH1ES2YX-98" edge="1">
          <mxGeometry relative="1" as="geometry">
            <mxPoint x="-480" y="380" as="sourcePoint" />
          </mxGeometry>
        </mxCell>
        <mxCell id="3YcAJ76opa_9jH1ES2YX-110" style="edgeStyle=orthogonalEdgeStyle;rounded=0;orthogonalLoop=1;jettySize=auto;html=1;exitX=1;exitY=0.5;exitDx=0;exitDy=0;entryX=0;entryY=0.5;entryDx=0;entryDy=0;" parent="1" source="3YcAJ76opa_9jH1ES2YX-109" target="3YcAJ76opa_9jH1ES2YX-5" edge="1">
          <mxGeometry relative="1" as="geometry">
            <Array as="points">
              <mxPoint x="-360" y="330" />
              <mxPoint x="-70" y="330" />
              <mxPoint x="-70" y="290" />
            </Array>
          </mxGeometry>
        </mxCell>
        <mxCell id="3YcAJ76opa_9jH1ES2YX-109" value="Thai fÃ©rfi" style="shape=rhombus;perimeter=rhombusPerimeter;whiteSpace=wrap;html=1;align=center;" parent="1" vertex="1">
          <mxGeometry x="-480" y="340" width="120" height="60" as="geometry" />
        </mxCell>
        <mxCell id="3YcAJ76opa_9jH1ES2YX-111" value="MegbÃ¡nva hazamÃ©sz" style="shape=ext;margin=3;double=1;whiteSpace=wrap;html=1;align=center;" parent="1" vertex="1">
          <mxGeometry x="-810" y="920" width="100" height="40" as="geometry" />
        </mxCell>
        <mxCell id="3YcAJ76opa_9jH1ES2YX-118" style="edgeStyle=orthogonalEdgeStyle;rounded=0;orthogonalLoop=1;jettySize=auto;html=1;exitX=0.5;exitY=1;exitDx=0;exitDy=0;entryX=0.5;entryY=0;entryDx=0;entryDy=0;" parent="1" source="3YcAJ76opa_9jH1ES2YX-115" target="3YcAJ76opa_9jH1ES2YX-117" edge="1">
          <mxGeometry relative="1" as="geometry" />
        </mxCell>
        <mxCell id="3YcAJ76opa_9jH1ES2YX-115" value="Hazaviszed" style="shape=rhombus;perimeter=rhombusPerimeter;whiteSpace=wrap;html=1;align=center;" parent="1" vertex="1">
          <mxGeometry x="-640" y="725" width="120" height="60" as="geometry" />
        </mxCell>
        <mxCell id="3YcAJ76opa_9jH1ES2YX-117" value="Boldogan felkelsz" style="shape=ext;margin=3;double=1;whiteSpace=wrap;html=1;align=center;" parent="1" vertex="1">
          <mxGeometry x="-650" y="920" width="100" height="40" as="geometry" />
        </mxCell>
        <mxCell id="3YcAJ76opa_9jH1ES2YX-123" value="HalÃ¡l (pokol)" style="shape=ext;margin=3;double=1;whiteSpace=wrap;html=1;align=center;" parent="1" vertex="1">
          <mxGeometry x="-520" y="920" width="100" height="40" as="geometry" />
        </mxCell>
        <mxCell id="3YcAJ76opa_9jH1ES2YX-124" style="edgeStyle=orthogonalEdgeStyle;rounded=0;orthogonalLoop=1;jettySize=auto;html=1;exitX=1;exitY=1;exitDx=0;exitDy=0;entryX=0.5;entryY=0;entryDx=0;entryDy=0;dashed=1;fillColor=#f8cecc;strokeColor=#b85450;" parent="1" target="3YcAJ76opa_9jH1ES2YX-123" edge="1">
          <mxGeometry relative="1" as="geometry">
            <mxPoint x="-550" y="770" as="sourcePoint" />
            <mxPoint x="-455" y="920" as="targetPoint" />
          </mxGeometry>
        </mxCell>
        <mxCell id="3YcAJ76opa_9jH1ES2YX-125" value="10%&lt;br&gt;bÃ©rgyilkos" style="edgeLabel;html=1;align=center;verticalAlign=middle;resizable=0;points=[];" parent="3YcAJ76opa_9jH1ES2YX-124" vertex="1" connectable="0">
          <mxGeometry x="-0.5673" y="-2" relative="1" as="geometry">
            <mxPoint as="offset" />
          </mxGeometry>
        </mxCell>
        <mxCell id="3YcAJ76opa_9jH1ES2YX-134" style="edgeStyle=orthogonalEdgeStyle;rounded=0;orthogonalLoop=1;jettySize=auto;html=1;exitX=0;exitY=0.5;exitDx=0;exitDy=0;entryX=1;entryY=0;entryDx=0;entryDy=0;" parent="1" source="3YcAJ76opa_9jH1ES2YX-130" target="3YcAJ76opa_9jH1ES2YX-115" edge="1">
          <mxGeometry relative="1" as="geometry" />
        </mxCell>
        <mxCell id="3YcAJ76opa_9jH1ES2YX-130" value="TalÃ¡kozol egy&lt;br&gt;alter lÃ¡nnyal" style="shape=rhombus;perimeter=rhombusPerimeter;whiteSpace=wrap;html=1;align=center;" parent="1" vertex="1">
          <mxGeometry y="580" width="120" height="60" as="geometry" />
        </mxCell>
        <mxCell id="3YcAJ76opa_9jH1ES2YX-136" value="fej vagy Ã­rÃ¡s" style="shape=rhombus;perimeter=rhombusPerimeter;whiteSpace=wrap;html=1;align=center;" parent="1" vertex="1">
          <mxGeometry x="-130" y="640" width="120" height="60" as="geometry" />
        </mxCell>
        <mxCell id="3YcAJ76opa_9jH1ES2YX-143" style="edgeStyle=orthogonalEdgeStyle;rounded=0;orthogonalLoop=1;jettySize=auto;html=1;dashed=1;fillColor=#f8cecc;strokeColor=#ff0800;" parent="1" source="3YcAJ76opa_9jH1ES2YX-140" target="3YcAJ76opa_9jH1ES2YX-142" edge="1">
          <mxGeometry relative="1" as="geometry" />
        </mxCell>
        <mxCell id="3YcAJ76opa_9jH1ES2YX-144" value="3%" style="edgeLabel;html=1;align=center;verticalAlign=middle;resizable=0;points=[];" parent="3YcAJ76opa_9jH1ES2YX-143" vertex="1" connectable="0">
          <mxGeometry x="-0.1833" y="2" relative="1" as="geometry">
            <mxPoint as="offset" />
          </mxGeometry>
        </mxCell>
        <mxCell id="3YcAJ76opa_9jH1ES2YX-140" value="LottÃ³" style="shape=rhombus;perimeter=rhombusPerimeter;whiteSpace=wrap;html=1;align=center;" parent="1" vertex="1">
          <mxGeometry x="170" y="620" width="120" height="60" as="geometry" />
        </mxCell>
        <mxCell id="3YcAJ76opa_9jH1ES2YX-142" value="MilliÃ¡rdos leszel" style="shape=ext;margin=3;double=1;whiteSpace=wrap;html=1;align=center;" parent="1" vertex="1">
          <mxGeometry x="180" y="920" width="100" height="40" as="geometry" />
        </mxCell>
        <mxCell id="3YcAJ76opa_9jH1ES2YX-148" style="edgeStyle=orthogonalEdgeStyle;rounded=0;orthogonalLoop=1;jettySize=auto;html=1;exitX=0.5;exitY=1;exitDx=0;exitDy=0;entryX=0.5;entryY=0;entryDx=0;entryDy=0;dashed=1;fillColor=#f8cecc;strokeColor=#ff0800;" parent="1" source="3YcAJ76opa_9jH1ES2YX-145" target="3YcAJ76opa_9jH1ES2YX-147" edge="1">
          <mxGeometry relative="1" as="geometry" />
        </mxCell>
        <mxCell id="3YcAJ76opa_9jH1ES2YX-149" value="70%" style="edgeLabel;html=1;align=center;verticalAlign=middle;resizable=0;points=[];" parent="3YcAJ76opa_9jH1ES2YX-148" vertex="1" connectable="0">
          <mxGeometry x="-0.1833" y="5" relative="1" as="geometry">
            <mxPoint x="-4" as="offset" />
          </mxGeometry>
        </mxCell>
        <mxCell id="cASwnKAZ-W6fKyCNoYo4-8" style="edgeStyle=orthogonalEdgeStyle;rounded=0;orthogonalLoop=1;jettySize=auto;html=1;entryX=0;entryY=0.5;entryDx=0;entryDy=0;dashed=1;fillColor=#f8cecc;strokeColor=#ff0800;" parent="1" source="3YcAJ76opa_9jH1ES2YX-145" target="cASwnKAZ-W6fKyCNoYo4-7" edge="1">
          <mxGeometry relative="1" as="geometry" />
        </mxCell>
        <mxCell id="cASwnKAZ-W6fKyCNoYo4-9" value="30%" style="edgeLabel;html=1;align=center;verticalAlign=middle;resizable=0;points=[];" parent="cASwnKAZ-W6fKyCNoYo4-8" vertex="1" connectable="0">
          <mxGeometry x="-0.0255" y="2" relative="1" as="geometry">
            <mxPoint as="offset" />
          </mxGeometry>
        </mxCell>
        <mxCell id="cASwnKAZ-W6fKyCNoYo4-27" style="edgeStyle=orthogonalEdgeStyle;rounded=0;orthogonalLoop=1;jettySize=auto;html=1;entryX=0.417;entryY=0.067;entryDx=0;entryDy=0;exitX=0.833;exitY=0.3;exitDx=0;exitDy=0;exitPerimeter=0;dashed=1;entryPerimeter=0;fillColor=#f8cecc;strokeColor=#ff0800;" parent="1" source="3YcAJ76opa_9jH1ES2YX-145" target="cASwnKAZ-W6fKyCNoYo4-25" edge="1">
          <mxGeometry relative="1" as="geometry">
            <mxPoint x="720" y="635.0000000000002" as="sourcePoint" />
            <mxPoint x="1130" y="640" as="targetPoint" />
          </mxGeometry>
        </mxCell>
        <mxCell id="cASwnKAZ-W6fKyCNoYo4-28" value="ha szerbek" style="edgeLabel;html=1;align=center;verticalAlign=middle;resizable=0;points=[];" parent="cASwnKAZ-W6fKyCNoYo4-27" vertex="1" connectable="0">
          <mxGeometry x="-0.2931" y="2" relative="1" as="geometry">
            <mxPoint as="offset" />
          </mxGeometry>
        </mxCell>
        <mxCell id="3YcAJ76opa_9jH1ES2YX-145" value="VerekedÃ©s" style="shape=rhombus;perimeter=rhombusPerimeter;whiteSpace=wrap;html=1;align=center;" parent="1" vertex="1">
          <mxGeometry x="600" y="620" width="120" height="60" as="geometry" />
        </mxCell>
        <mxCell id="3YcAJ76opa_9jH1ES2YX-147" value="HalÃ¡l (megvertek)" style="shape=ext;margin=3;double=1;whiteSpace=wrap;html=1;align=center;" parent="1" vertex="1">
          <mxGeometry x="610" y="920" width="100" height="40" as="geometry" />
        </mxCell>
        <mxCell id="3YcAJ76opa_9jH1ES2YX-158" style="edgeStyle=orthogonalEdgeStyle;rounded=0;orthogonalLoop=1;jettySize=auto;html=1;entryX=1;entryY=0.5;entryDx=0;entryDy=0;" parent="1" source="3YcAJ76opa_9jH1ES2YX-153" target="3YcAJ76opa_9jH1ES2YX-71" edge="1">
          <mxGeometry relative="1" as="geometry">
            <Array as="points">
              <mxPoint x="370" y="800" />
              <mxPoint x="-100" y="800" />
              <mxPoint x="-100" y="745" />
            </Array>
          </mxGeometry>
        </mxCell>
        <mxCell id="3YcAJ76opa_9jH1ES2YX-153" value="Vicces gomba" style="shape=rhombus;perimeter=rhombusPerimeter;whiteSpace=wrap;html=1;align=center;" parent="1" vertex="1">
          <mxGeometry x="310" y="660" width="120" height="60" as="geometry" />
        </mxCell>
        <mxCell id="3YcAJ76opa_9jH1ES2YX-154" style="edgeStyle=orthogonalEdgeStyle;rounded=0;orthogonalLoop=1;jettySize=auto;html=1;entryX=0.099;entryY=0.977;entryDx=0;entryDy=0;entryPerimeter=0;startArrow=classic;startFill=1;endArrow=none;endFill=0;" parent="1" source="3YcAJ76opa_9jH1ES2YX-153" target="3YcAJ76opa_9jH1ES2YX-34" edge="1">
          <mxGeometry relative="1" as="geometry" />
        </mxCell>
        <mxCell id="3YcAJ76opa_9jH1ES2YX-156" style="edgeStyle=orthogonalEdgeStyle;rounded=0;orthogonalLoop=1;jettySize=auto;html=1;entryX=0;entryY=0.5;entryDx=0;entryDy=0;startArrow=none;startFill=0;dashed=1;fillColor=#d5e8d4;strokeColor=#82b366;" parent="1" source="3YcAJ76opa_9jH1ES2YX-130" target="3YcAJ76opa_9jH1ES2YX-153" edge="1">
          <mxGeometry relative="1" as="geometry">
            <Array as="points">
              <mxPoint x="60" y="690" />
            </Array>
          </mxGeometry>
        </mxCell>
        <mxCell id="3YcAJ76opa_9jH1ES2YX-157" value="80%" style="edgeLabel;html=1;align=center;verticalAlign=middle;resizable=0;points=[];" parent="3YcAJ76opa_9jH1ES2YX-156" vertex="1" connectable="0">
          <mxGeometry x="-0.0874" y="-2" relative="1" as="geometry">
            <mxPoint as="offset" />
          </mxGeometry>
        </mxCell>
        <mxCell id="3YcAJ76opa_9jH1ES2YX-159" value="Elhagyom az orszÃ¡got" style="shape=rhombus;perimeter=rhombusPerimeter;whiteSpace=wrap;html=1;align=center;" parent="1" vertex="1">
          <mxGeometry x="500" y="270" width="120" height="60" as="geometry" />
        </mxCell>
        <mxCell id="3YcAJ76opa_9jH1ES2YX-160" value="Az Ã©j hÃ¶lgye" style="shape=rhombus;perimeter=rhombusPerimeter;whiteSpace=wrap;html=1;align=center;" parent="1" vertex="1">
          <mxGeometry x="-470" y="540" width="120" height="60" as="geometry" />
        </mxCell>
        <mxCell id="3YcAJ76opa_9jH1ES2YX-161" value="Ingyenes nÃ©ni&amp;nbsp;" style="shape=rhombus;perimeter=rhombusPerimeter;whiteSpace=wrap;html=1;align=center;" parent="1" vertex="1">
          <mxGeometry x="-340" y="540" width="120" height="60" as="geometry" />
        </mxCell>
        <mxCell id="3YcAJ76opa_9jH1ES2YX-163" style="edgeStyle=orthogonalEdgeStyle;rounded=0;orthogonalLoop=1;jettySize=auto;html=1;entryX=0.6;entryY=0.056;entryDx=0;entryDy=0;entryPerimeter=0;" parent="1" source="3YcAJ76opa_9jH1ES2YX-162" target="3YcAJ76opa_9jH1ES2YX-145" edge="1">
          <mxGeometry relative="1" as="geometry">
            <Array as="points">
              <mxPoint x="672" y="570" />
            </Array>
          </mxGeometry>
        </mxCell>
        <mxCell id="3YcAJ76opa_9jH1ES2YX-162" value="Cseh sÃ¶rÃ¶zÅ" style="whiteSpace=wrap;html=1;align=center;" parent="1" vertex="1">
          <mxGeometry x="890" y="550" width="100" height="40" as="geometry" />
        </mxCell>
        <mxCell id="3YcAJ76opa_9jH1ES2YX-165" style="edgeStyle=orthogonalEdgeStyle;rounded=0;orthogonalLoop=1;jettySize=auto;html=1;exitX=0.25;exitY=1;exitDx=0;exitDy=0;entryX=0.75;entryY=1;entryDx=0;entryDy=0;" parent="1" source="3YcAJ76opa_9jH1ES2YX-162" target="3YcAJ76opa_9jH1ES2YX-162" edge="1">
          <mxGeometry relative="1" as="geometry" />
        </mxCell>
        <mxCell id="cASwnKAZ-W6fKyCNoYo4-1" value="JÃ¡tÃ©kos" style="swimlane;childLayout=stackLayout;horizontal=1;startSize=50;horizontalStack=0;rounded=1;fontSize=14;fontStyle=0;strokeWidth=2;resizeParent=0;resizeLast=1;shadow=0;dashed=0;align=center;arcSize=4;whiteSpace=wrap;html=1;" parent="1" vertex="1">
          <mxGeometry x="-810" y="10" width="160" height="150" as="geometry" />
        </mxCell>
        <mxCell id="cASwnKAZ-W6fKyCNoYo4-2" value="+VÃ©ralkoholszint&lt;br&gt;+PÃ©nz&lt;br&gt;+IdÅ&lt;br&gt;+BoldogsÃ¡g&lt;br&gt;" style="align=left;strokeColor=none;fillColor=none;spacingLeft=4;fontSize=12;verticalAlign=top;resizable=0;rotatable=0;part=1;html=1;" parent="cASwnKAZ-W6fKyCNoYo4-1" vertex="1">
          <mxGeometry y="50" width="160" height="100" as="geometry" />
        </mxCell>
        <mxCell id="cASwnKAZ-W6fKyCNoYo4-13" style="edgeStyle=orthogonalEdgeStyle;rounded=0;orthogonalLoop=1;jettySize=auto;html=1;entryX=0.5;entryY=0;entryDx=0;entryDy=0;" parent="1" source="cASwnKAZ-W6fKyCNoYo4-7" target="cASwnKAZ-W6fKyCNoYo4-11" edge="1">
          <mxGeometry relative="1" as="geometry" />
        </mxCell>
        <mxCell id="cASwnKAZ-W6fKyCNoYo4-35" style="edgeStyle=orthogonalEdgeStyle;rounded=0;orthogonalLoop=1;jettySize=auto;html=1;entryX=0;entryY=1;entryDx=0;entryDy=0;dashed=1;fillColor=#d5e8d4;strokeColor=#82b366;" parent="1" source="cASwnKAZ-W6fKyCNoYo4-7" target="3YcAJ76opa_9jH1ES2YX-162" edge="1">
          <mxGeometry relative="1" as="geometry">
            <Array as="points">
              <mxPoint x="840" y="680" />
              <mxPoint x="890" y="680" />
            </Array>
          </mxGeometry>
        </mxCell>
        <mxCell id="cASwnKAZ-W6fKyCNoYo4-36" value="ha cseh" style="edgeLabel;html=1;align=center;verticalAlign=middle;resizable=0;points=[];" parent="cASwnKAZ-W6fKyCNoYo4-35" vertex="1" connectable="0">
          <mxGeometry x="-0.0907" y="4" relative="1" as="geometry">
            <mxPoint as="offset" />
          </mxGeometry>
        </mxCell>
        <mxCell id="cASwnKAZ-W6fKyCNoYo4-37" style="edgeStyle=orthogonalEdgeStyle;rounded=0;orthogonalLoop=1;jettySize=auto;html=1;exitX=0;exitY=1;exitDx=0;exitDy=0;entryX=0.75;entryY=0;entryDx=0;entryDy=0;dashed=1;fillColor=#f8cecc;strokeColor=#ff0800;" parent="1" source="cASwnKAZ-W6fKyCNoYo4-7" target="3YcAJ76opa_9jH1ES2YX-93" edge="1">
          <mxGeometry relative="1" as="geometry">
            <Array as="points">
              <mxPoint x="810" y="820" />
              <mxPoint x="525" y="820" />
            </Array>
          </mxGeometry>
        </mxCell>
        <mxCell id="cASwnKAZ-W6fKyCNoYo4-38" value="ha templom" style="edgeLabel;html=1;align=center;verticalAlign=middle;resizable=0;points=[];" parent="cASwnKAZ-W6fKyCNoYo4-37" vertex="1" connectable="0">
          <mxGeometry x="-0.3212" y="3" relative="1" as="geometry">
            <mxPoint as="offset" />
          </mxGeometry>
        </mxCell>
        <mxCell id="cASwnKAZ-W6fKyCNoYo4-7" value="Nyersz" style="shape=rhombus;perimeter=rhombusPerimeter;whiteSpace=wrap;html=1;align=center;" parent="1" vertex="1">
          <mxGeometry x="780" y="725" width="120" height="60" as="geometry" />
        </mxCell>
        <mxCell id="cASwnKAZ-W6fKyCNoYo4-15" style="edgeStyle=orthogonalEdgeStyle;rounded=0;orthogonalLoop=1;jettySize=auto;html=1;entryX=0.5;entryY=0;entryDx=0;entryDy=0;dashed=1;fillColor=#f8cecc;strokeColor=#ff0800;" parent="1" source="cASwnKAZ-W6fKyCNoYo4-11" target="cASwnKAZ-W6fKyCNoYo4-14" edge="1">
          <mxGeometry relative="1" as="geometry" />
        </mxCell>
        <mxCell id="cASwnKAZ-W6fKyCNoYo4-16" value="50%" style="edgeLabel;html=1;align=center;verticalAlign=middle;resizable=0;points=[];" parent="cASwnKAZ-W6fKyCNoYo4-15" vertex="1" connectable="0">
          <mxGeometry x="-0.18" y="-2" relative="1" as="geometry">
            <mxPoint as="offset" />
          </mxGeometry>
        </mxCell>
        <mxCell id="OcjlMs63i2m_CkLZo7GT-3" style="edgeStyle=orthogonalEdgeStyle;rounded=0;orthogonalLoop=1;jettySize=auto;html=1;entryX=1;entryY=1;entryDx=0;entryDy=0;fillColor=#f8cecc;strokeColor=#b85450;dashed=1;" edge="1" parent="1" target="3YcAJ76opa_9jH1ES2YX-162">
          <mxGeometry relative="1" as="geometry">
            <mxPoint x="840" y="900" as="sourcePoint" />
          </mxGeometry>
        </mxCell>
        <mxCell id="OcjlMs63i2m_CkLZo7GT-4" style="edgeStyle=orthogonalEdgeStyle;rounded=0;orthogonalLoop=1;jettySize=auto;html=1;entryX=1;entryY=0.75;entryDx=0;entryDy=0;fillColor=#f8cecc;strokeColor=#ff0800;dashed=1;" edge="1" parent="1" target="3YcAJ76opa_9jH1ES2YX-36">
          <mxGeometry relative="1" as="geometry">
            <mxPoint x="830" y="900" as="sourcePoint" />
            <mxPoint x="710" y="450" as="targetPoint" />
            <Array as="points">
              <mxPoint x="830" y="901" />
              <mxPoint x="600" y="901" />
              <mxPoint x="600" y="470" />
              <mxPoint x="560" y="470" />
            </Array>
          </mxGeometry>
        </mxCell>
        <mxCell id="cASwnKAZ-W6fKyCNoYo4-11" value="Kizsebeled" style="shape=rhombus;perimeter=rhombusPerimeter;whiteSpace=wrap;html=1;align=center;" parent="1" vertex="1">
          <mxGeometry x="780" y="820" width="120" height="60" as="geometry" />
        </mxCell>
        <mxCell id="cASwnKAZ-W6fKyCNoYo4-14" value="BÃ¶tÃ¶nbe zÃ¡rnak" style="shape=ext;margin=3;double=1;whiteSpace=wrap;html=1;align=center;" parent="1" vertex="1">
          <mxGeometry x="790" y="920" width="100" height="40" as="geometry" />
        </mxCell>
        <mxCell id="cASwnKAZ-W6fKyCNoYo4-23" style="edgeStyle=orthogonalEdgeStyle;rounded=0;orthogonalLoop=1;jettySize=auto;html=1;exitX=0.25;exitY=1;exitDx=0;exitDy=0;" parent="1" source="cASwnKAZ-W6fKyCNoYo4-21" edge="1">
          <mxGeometry relative="1" as="geometry">
            <mxPoint x="1300" y="590.2352941176471" as="targetPoint" />
          </mxGeometry>
        </mxCell>
        <mxCell id="cASwnKAZ-W6fKyCNoYo4-24" style="edgeStyle=orthogonalEdgeStyle;rounded=0;orthogonalLoop=1;jettySize=auto;html=1;entryX=1;entryY=0;entryDx=0;entryDy=0;exitX=0.08;exitY=1;exitDx=0;exitDy=0;exitPerimeter=0;" parent="1" source="cASwnKAZ-W6fKyCNoYo4-21" target="3YcAJ76opa_9jH1ES2YX-145" edge="1">
          <mxGeometry relative="1" as="geometry">
            <Array as="points">
              <mxPoint x="1240" y="590" />
              <mxPoint x="1240" y="620" />
              <mxPoint x="690" y="620" />
            </Array>
          </mxGeometry>
        </mxCell>
        <mxCell id="cASwnKAZ-W6fKyCNoYo4-21" value="Szerb sÃ¶rÃ¶zÅ" style="whiteSpace=wrap;html=1;align=center;" parent="1" vertex="1">
          <mxGeometry x="1230" y="550" width="100" height="40" as="geometry" />
        </mxCell>
        <mxCell id="cASwnKAZ-W6fKyCNoYo4-29" style="edgeStyle=orthogonalEdgeStyle;rounded=0;orthogonalLoop=1;jettySize=auto;html=1;entryX=0.75;entryY=1;entryDx=0;entryDy=0;" parent="1" source="cASwnKAZ-W6fKyCNoYo4-25" target="3YcAJ76opa_9jH1ES2YX-147" edge="1">
          <mxGeometry relative="1" as="geometry">
            <Array as="points">
              <mxPoint x="1030" y="670" />
              <mxPoint x="1030" y="980" />
              <mxPoint x="685" y="980" />
            </Array>
          </mxGeometry>
        </mxCell>
        <mxCell id="cASwnKAZ-W6fKyCNoYo4-25" value="Szerb maffia" style="shape=rhombus;perimeter=rhombusPerimeter;whiteSpace=wrap;html=1;align=center;" parent="1" vertex="1">
          <mxGeometry x="1100" y="640" width="120" height="60" as="geometry" />
        </mxCell>
        <mxCell id="cASwnKAZ-W6fKyCNoYo4-31" style="edgeStyle=orthogonalEdgeStyle;rounded=0;orthogonalLoop=1;jettySize=auto;html=1;entryX=1;entryY=0.5;entryDx=0;entryDy=0;exitX=0.5;exitY=1;exitDx=0;exitDy=0;" parent="1" source="cASwnKAZ-W6fKyCNoYo4-33" target="cASwnKAZ-W6fKyCNoYo4-14" edge="1">
          <mxGeometry relative="1" as="geometry">
            <Array as="points">
              <mxPoint x="1395" y="775" />
              <mxPoint x="1395" y="940" />
            </Array>
          </mxGeometry>
        </mxCell>
        <mxCell id="cASwnKAZ-W6fKyCNoYo4-34" style="edgeStyle=orthogonalEdgeStyle;rounded=0;orthogonalLoop=1;jettySize=auto;html=1;entryX=0.5;entryY=0;entryDx=0;entryDy=0;" parent="1" source="cASwnKAZ-W6fKyCNoYo4-30" target="cASwnKAZ-W6fKyCNoYo4-33" edge="1">
          <mxGeometry relative="1" as="geometry" />
        </mxCell>
        <mxCell id="cASwnKAZ-W6fKyCNoYo4-30" value="Szerb fegyver piac" style="whiteSpace=wrap;html=1;align=center;" parent="1" vertex="1">
          <mxGeometry x="1370" y="550" width="100" height="40" as="geometry" />
        </mxCell>
        <mxCell id="cASwnKAZ-W6fKyCNoYo4-33" value="Fegyver vÃ¡lasztÃ¡s" style="shape=rhombus;perimeter=rhombusPerimeter;whiteSpace=wrap;html=1;align=center;" parent="1" vertex="1">
          <mxGeometry x="1360" y="660" width="120" height="60" as="geometry" />
        </mxCell>
        <mxCell id="OcjlMs63i2m_CkLZo7GT-32" value="" style="shape=table;startSize=0;container=1;collapsible=0;childLayout=tableLayout;perimeterSpacing=5;strokeColor=default;rounded=1;" vertex="1" parent="1">
          <mxGeometry x="-583" y="10" width="223" height="150" as="geometry" />
        </mxCell>
        <mxCell id="OcjlMs63i2m_CkLZo7GT-33" value="" style="shape=tableRow;horizontal=0;startSize=0;swimlaneHead=0;swimlaneBody=0;strokeColor=inherit;top=0;left=0;bottom=0;right=0;collapsible=0;dropTarget=0;fillColor=none;points=[[0,0.5],[1,0.5]];portConstraint=eastwest;" vertex="1" parent="OcjlMs63i2m_CkLZo7GT-32">
          <mxGeometry width="223" height="38" as="geometry" />
        </mxCell>
        <mxCell id="OcjlMs63i2m_CkLZo7GT-34" value="Forma" style="shape=partialRectangle;html=1;whiteSpace=wrap;connectable=0;strokeColor=inherit;overflow=hidden;fillColor=none;top=0;left=0;bottom=0;right=0;pointerEvents=1;strokeWidth=4;dashed=1;dashPattern=1 1;" vertex="1" parent="OcjlMs63i2m_CkLZo7GT-33">
          <mxGeometry width="82" height="38" as="geometry">
            <mxRectangle width="82" height="38" as="alternateBounds" />
          </mxGeometry>
        </mxCell>
        <mxCell id="OcjlMs63i2m_CkLZo7GT-35" value="JelentÃ©s" style="shape=partialRectangle;html=1;whiteSpace=wrap;connectable=0;strokeColor=inherit;overflow=hidden;fillColor=none;top=0;left=0;bottom=0;right=0;pointerEvents=1;strokeWidth=4;" vertex="1" parent="OcjlMs63i2m_CkLZo7GT-33">
          <mxGeometry x="82" width="141" height="38" as="geometry">
            <mxRectangle width="141" height="38" as="alternateBounds" />
          </mxGeometry>
        </mxCell>
        <mxCell id="OcjlMs63i2m_CkLZo7GT-36" value="" style="shape=tableRow;horizontal=0;startSize=0;swimlaneHead=0;swimlaneBody=0;strokeColor=inherit;top=0;left=0;bottom=0;right=0;collapsible=0;dropTarget=0;fillColor=none;points=[[0,0.5],[1,0.5]];portConstraint=eastwest;" vertex="1" parent="OcjlMs63i2m_CkLZo7GT-32">
          <mxGeometry y="38" width="223" height="37" as="geometry" />
        </mxCell>
        <mxCell id="OcjlMs63i2m_CkLZo7GT-37" value="TÃ©glalap" style="shape=partialRectangle;html=1;whiteSpace=wrap;connectable=0;strokeColor=inherit;overflow=hidden;fillColor=none;top=0;left=0;bottom=0;right=0;pointerEvents=1;" vertex="1" parent="OcjlMs63i2m_CkLZo7GT-36">
          <mxGeometry width="82" height="37" as="geometry">
            <mxRectangle width="82" height="37" as="alternateBounds" />
          </mxGeometry>
        </mxCell>
        <mxCell id="OcjlMs63i2m_CkLZo7GT-38" value="Hely" style="shape=partialRectangle;html=1;whiteSpace=wrap;connectable=0;strokeColor=inherit;overflow=hidden;fillColor=none;top=0;left=0;bottom=0;right=0;pointerEvents=1;" vertex="1" parent="OcjlMs63i2m_CkLZo7GT-36">
          <mxGeometry x="82" width="141" height="37" as="geometry">
            <mxRectangle width="141" height="37" as="alternateBounds" />
          </mxGeometry>
        </mxCell>
        <mxCell id="OcjlMs63i2m_CkLZo7GT-39" value="" style="shape=tableRow;horizontal=0;startSize=0;swimlaneHead=0;swimlaneBody=0;strokeColor=inherit;top=0;left=0;bottom=0;right=0;collapsible=0;dropTarget=0;fillColor=none;points=[[0,0.5],[1,0.5]];portConstraint=eastwest;" vertex="1" parent="OcjlMs63i2m_CkLZo7GT-32">
          <mxGeometry y="75" width="223" height="38" as="geometry" />
        </mxCell>
        <mxCell id="OcjlMs63i2m_CkLZo7GT-40" value="Rombusz" style="shape=partialRectangle;html=1;whiteSpace=wrap;connectable=0;strokeColor=inherit;overflow=hidden;fillColor=none;top=0;left=0;bottom=0;right=0;pointerEvents=1;" vertex="1" parent="OcjlMs63i2m_CkLZo7GT-39">
          <mxGeometry width="82" height="38" as="geometry">
            <mxRectangle width="82" height="38" as="alternateBounds" />
          </mxGeometry>
        </mxCell>
        <mxCell id="OcjlMs63i2m_CkLZo7GT-41" value="CselekvÃ©st jelÃ¶l" style="shape=partialRectangle;html=1;whiteSpace=wrap;connectable=0;strokeColor=inherit;overflow=hidden;fillColor=none;top=0;left=0;bottom=0;right=0;pointerEvents=1;" vertex="1" parent="OcjlMs63i2m_CkLZo7GT-39">
          <mxGeometry x="82" width="141" height="38" as="geometry">
            <mxRectangle width="141" height="38" as="alternateBounds" />
          </mxGeometry>
        </mxCell>
        <mxCell id="OcjlMs63i2m_CkLZo7GT-42" value="" style="shape=tableRow;horizontal=0;startSize=0;swimlaneHead=0;swimlaneBody=0;strokeColor=inherit;top=0;left=0;bottom=0;right=0;collapsible=0;dropTarget=0;fillColor=none;points=[[0,0.5],[1,0.5]];portConstraint=eastwest;" vertex="1" parent="OcjlMs63i2m_CkLZo7GT-32">
          <mxGeometry y="113" width="223" height="37" as="geometry" />
        </mxCell>
        <mxCell id="OcjlMs63i2m_CkLZo7GT-43" value="Keretezett tÃ©glalap" style="shape=partialRectangle;html=1;whiteSpace=wrap;connectable=0;strokeColor=inherit;overflow=hidden;fillColor=none;top=0;left=0;bottom=0;right=0;pointerEvents=1;" vertex="1" parent="OcjlMs63i2m_CkLZo7GT-42">
          <mxGeometry width="82" height="37" as="geometry">
            <mxRectangle width="82" height="37" as="alternateBounds" />
          </mxGeometry>
        </mxCell>
        <mxCell id="OcjlMs63i2m_CkLZo7GT-44" value="JÃ¡tÃ©k vÃ©ge" style="shape=partialRectangle;html=1;whiteSpace=wrap;connectable=0;strokeColor=inherit;overflow=hidden;fillColor=none;top=0;left=0;bottom=0;right=0;pointerEvents=1;" vertex="1" parent="OcjlMs63i2m_CkLZo7GT-42">
          <mxGeometry x="82" width="141" height="37" as="geometry">
            <mxRectangle width="141" height="37" as="alternateBounds" />
          </mxGeometry>
        </mxCell>
        <mxCell id="OcjlMs63i2m_CkLZo7GT-66" value="" style="shape=table;startSize=0;container=1;collapsible=0;childLayout=tableLayout;fontColor=#FFFFFF;" vertex="1" parent="1">
          <mxGeometry x="-330" y="10" width="430" height="200" as="geometry" />
        </mxCell>
        <mxCell id="OcjlMs63i2m_CkLZo7GT-67" value="" style="shape=tableRow;horizontal=0;startSize=0;swimlaneHead=0;swimlaneBody=0;strokeColor=inherit;top=0;left=0;bottom=0;right=0;collapsible=0;dropTarget=0;fillColor=none;points=[[0,0.5],[1,0.5]];portConstraint=eastwest;" vertex="1" parent="OcjlMs63i2m_CkLZo7GT-66">
          <mxGeometry width="430" height="40" as="geometry" />
        </mxCell>
        <mxCell id="OcjlMs63i2m_CkLZo7GT-68" value="NyÃ­l" style="shape=partialRectangle;html=1;whiteSpace=wrap;connectable=0;strokeColor=inherit;overflow=hidden;fillColor=none;top=0;left=0;bottom=0;right=0;pointerEvents=1;" vertex="1" parent="OcjlMs63i2m_CkLZo7GT-67">
          <mxGeometry width="143" height="40" as="geometry">
            <mxRectangle width="143" height="40" as="alternateBounds" />
          </mxGeometry>
        </mxCell>
        <mxCell id="OcjlMs63i2m_CkLZo7GT-69" value="JelentÃ©s" style="shape=partialRectangle;html=1;whiteSpace=wrap;connectable=0;strokeColor=inherit;overflow=hidden;fillColor=none;top=0;left=0;bottom=0;right=0;pointerEvents=1;" vertex="1" parent="OcjlMs63i2m_CkLZo7GT-67">
          <mxGeometry x="143" width="144" height="40" as="geometry">
            <mxRectangle width="144" height="40" as="alternateBounds" />
          </mxGeometry>
        </mxCell>
        <mxCell id="OcjlMs63i2m_CkLZo7GT-70" value="SzÃ­n" style="shape=partialRectangle;html=1;whiteSpace=wrap;connectable=0;strokeColor=inherit;overflow=hidden;fillColor=none;top=0;left=0;bottom=0;right=0;pointerEvents=1;" vertex="1" parent="OcjlMs63i2m_CkLZo7GT-67">
          <mxGeometry x="287" width="143" height="40" as="geometry">
            <mxRectangle width="143" height="40" as="alternateBounds" />
          </mxGeometry>
        </mxCell>
        <mxCell id="OcjlMs63i2m_CkLZo7GT-71" value="" style="shape=tableRow;horizontal=0;startSize=0;swimlaneHead=0;swimlaneBody=0;strokeColor=inherit;top=0;left=0;bottom=0;right=0;collapsible=0;dropTarget=0;fillColor=none;points=[[0,0.5],[1,0.5]];portConstraint=eastwest;" vertex="1" parent="OcjlMs63i2m_CkLZo7GT-66">
          <mxGeometry y="40" width="430" height="40" as="geometry" />
        </mxCell>
        <mxCell id="OcjlMs63i2m_CkLZo7GT-72" value="" style="shape=partialRectangle;html=1;whiteSpace=wrap;connectable=0;strokeColor=inherit;overflow=hidden;fillColor=none;top=0;left=0;bottom=0;right=0;pointerEvents=1;" vertex="1" parent="OcjlMs63i2m_CkLZo7GT-71">
          <mxGeometry width="143" height="40" as="geometry">
            <mxRectangle width="143" height="40" as="alternateBounds" />
          </mxGeometry>
        </mxCell>
        <mxCell id="OcjlMs63i2m_CkLZo7GT-73" value="VÃ¡lasztÃ¡s" style="shape=partialRectangle;html=1;whiteSpace=wrap;connectable=0;strokeColor=inherit;overflow=hidden;fillColor=none;top=0;left=0;bottom=0;right=0;pointerEvents=1;" vertex="1" parent="OcjlMs63i2m_CkLZo7GT-71">
          <mxGeometry x="143" width="144" height="40" as="geometry">
            <mxRectangle width="144" height="40" as="alternateBounds" />
          </mxGeometry>
        </mxCell>
        <mxCell id="OcjlMs63i2m_CkLZo7GT-74" value="&lt;font color=&quot;#ffffff&quot;&gt;FehÃ©r&lt;/font&gt;" style="shape=partialRectangle;html=1;whiteSpace=wrap;connectable=0;strokeColor=#23445d;overflow=hidden;fillColor=#000033;top=0;left=0;bottom=0;right=0;pointerEvents=1;" vertex="1" parent="OcjlMs63i2m_CkLZo7GT-71">
          <mxGeometry x="287" width="143" height="40" as="geometry">
            <mxRectangle width="143" height="40" as="alternateBounds" />
          </mxGeometry>
        </mxCell>
        <mxCell id="OcjlMs63i2m_CkLZo7GT-75" value="" style="shape=tableRow;horizontal=0;startSize=0;swimlaneHead=0;swimlaneBody=0;strokeColor=inherit;top=0;left=0;bottom=0;right=0;collapsible=0;dropTarget=0;fillColor=none;points=[[0,0.5],[1,0.5]];portConstraint=eastwest;" vertex="1" parent="OcjlMs63i2m_CkLZo7GT-66">
          <mxGeometry y="80" width="430" height="40" as="geometry" />
        </mxCell>
        <mxCell id="OcjlMs63i2m_CkLZo7GT-76" value="" style="shape=partialRectangle;html=1;whiteSpace=wrap;connectable=0;strokeColor=inherit;overflow=hidden;fillColor=none;top=0;left=0;bottom=0;right=0;pointerEvents=1;" vertex="1" parent="OcjlMs63i2m_CkLZo7GT-75">
          <mxGeometry width="143" height="40" as="geometry">
            <mxRectangle width="143" height="40" as="alternateBounds" />
          </mxGeometry>
        </mxCell>
        <mxCell id="OcjlMs63i2m_CkLZo7GT-77" value="VÃ©letlenszerÅ± esÃ©lyhez kÃ¶tÃ¶tt vÃ¡lasztÃ¡s" style="shape=partialRectangle;html=1;whiteSpace=wrap;connectable=0;strokeColor=inherit;overflow=hidden;fillColor=none;top=0;left=0;bottom=0;right=0;pointerEvents=1;" vertex="1" parent="OcjlMs63i2m_CkLZo7GT-75">
          <mxGeometry x="143" width="144" height="40" as="geometry">
            <mxRectangle width="144" height="40" as="alternateBounds" />
          </mxGeometry>
        </mxCell>
        <mxCell id="OcjlMs63i2m_CkLZo7GT-78" value="&lt;font&gt;ZÃ¶ld&lt;/font&gt;" style="shape=partialRectangle;html=1;whiteSpace=wrap;connectable=0;strokeColor=#40F23A;overflow=hidden;fillColor=#07E241;top=0;left=0;bottom=0;right=0;pointerEvents=1;" vertex="1" parent="OcjlMs63i2m_CkLZo7GT-75">
          <mxGeometry x="287" width="143" height="40" as="geometry">
            <mxRectangle width="143" height="40" as="alternateBounds" />
          </mxGeometry>
        </mxCell>
        <mxCell id="OcjlMs63i2m_CkLZo7GT-79" value="" style="shape=tableRow;horizontal=0;startSize=0;swimlaneHead=0;swimlaneBody=0;strokeColor=inherit;top=0;left=0;bottom=0;right=0;collapsible=0;dropTarget=0;fillColor=none;points=[[0,0.5],[1,0.5]];portConstraint=eastwest;" vertex="1" parent="OcjlMs63i2m_CkLZo7GT-66">
          <mxGeometry y="120" width="430" height="40" as="geometry" />
        </mxCell>
        <mxCell id="OcjlMs63i2m_CkLZo7GT-80" value="" style="shape=partialRectangle;html=1;whiteSpace=wrap;connectable=0;strokeColor=inherit;overflow=hidden;fillColor=none;top=0;left=0;bottom=0;right=0;pointerEvents=1;" vertex="1" parent="OcjlMs63i2m_CkLZo7GT-79">
          <mxGeometry width="143" height="40" as="geometry">
            <mxRectangle width="143" height="40" as="alternateBounds" />
          </mxGeometry>
        </mxCell>
        <mxCell id="OcjlMs63i2m_CkLZo7GT-81" value="KÃ¶telezÅ tÃ¶rtÃ©nÃ©s" style="shape=partialRectangle;html=1;whiteSpace=wrap;connectable=0;strokeColor=inherit;overflow=hidden;fillColor=none;top=0;left=0;bottom=0;right=0;pointerEvents=1;" vertex="1" parent="OcjlMs63i2m_CkLZo7GT-79">
          <mxGeometry x="143" width="144" height="40" as="geometry">
            <mxRectangle width="144" height="40" as="alternateBounds" />
          </mxGeometry>
        </mxCell>
        <mxCell id="OcjlMs63i2m_CkLZo7GT-82" value="Piros" style="shape=partialRectangle;html=1;whiteSpace=wrap;connectable=0;strokeColor=#005700;overflow=hidden;fillColor=#ff0000;top=0;left=0;bottom=0;right=0;pointerEvents=1;fontColor=#ffffff;" vertex="1" parent="OcjlMs63i2m_CkLZo7GT-79">
          <mxGeometry x="287" width="143" height="40" as="geometry">
            <mxRectangle width="143" height="40" as="alternateBounds" />
          </mxGeometry>
        </mxCell>
        <mxCell id="OcjlMs63i2m_CkLZo7GT-83" value="" style="shape=tableRow;horizontal=0;startSize=0;swimlaneHead=0;swimlaneBody=0;strokeColor=inherit;top=0;left=0;bottom=0;right=0;collapsible=0;dropTarget=0;fillColor=none;points=[[0,0.5],[1,0.5]];portConstraint=eastwest;" vertex="1" parent="OcjlMs63i2m_CkLZo7GT-66">
          <mxGeometry y="160" width="430" height="40" as="geometry" />
        </mxCell>
        <mxCell id="OcjlMs63i2m_CkLZo7GT-84" value="" style="shape=partialRectangle;html=1;whiteSpace=wrap;connectable=0;strokeColor=inherit;overflow=hidden;fillColor=none;top=0;left=0;bottom=0;right=0;pointerEvents=1;" vertex="1" parent="OcjlMs63i2m_CkLZo7GT-83">
          <mxGeometry width="143" height="40" as="geometry">
            <mxRectangle width="143" height="40" as="alternateBounds" />
          </mxGeometry>
        </mxCell>
        <mxCell id="OcjlMs63i2m_CkLZo7GT-85" value="FeltÃ©telhez kÃ¶tÃ¶tt vÃ¡lasztÃ¡s" style="shape=partialRectangle;html=1;whiteSpace=wrap;connectable=0;strokeColor=inherit;overflow=hidden;fillColor=none;top=0;left=0;bottom=0;right=0;pointerEvents=1;" vertex="1" parent="OcjlMs63i2m_CkLZo7GT-83">
          <mxGeometry x="143" width="144" height="40" as="geometry">
            <mxRectangle width="144" height="40" as="alternateBounds" />
          </mxGeometry>
        </mxCell>
        <mxCell id="OcjlMs63i2m_CkLZo7GT-86" value="SÃ¡rga" style="shape=partialRectangle;html=1;whiteSpace=wrap;connectable=0;strokeColor=#d79b00;overflow=hidden;fillColor=#ff8400;top=0;left=0;bottom=0;right=0;pointerEvents=1;" vertex="1" parent="OcjlMs63i2m_CkLZo7GT-83">
          <mxGeometry x="287" width="143" height="40" as="geometry">
            <mxRectangle width="143" height="40" as="alternateBounds" />
          </mxGeometry>
        </mxCell>
        <mxCell id="OcjlMs63i2m_CkLZo7GT-89" value="" style="endArrow=classic;dashed=1;html=1;dashPattern=1 3;strokeWidth=2;rounded=0;startArrow=none;startFill=0;endFill=1;fillColor=#008a00;strokeColor=#00ff00;" edge="1" parent="1">
          <mxGeometry width="50" height="50" relative="1" as="geometry">
            <mxPoint x="-310" y="109.5" as="sourcePoint" />
            <mxPoint x="-250" y="109.5" as="targetPoint" />
          </mxGeometry>
        </mxCell>
        <mxCell id="OcjlMs63i2m_CkLZo7GT-92" value="" style="endArrow=classic;dashed=1;html=1;dashPattern=1 3;strokeWidth=2;rounded=0;startArrow=none;startFill=0;endFill=1;strokeColor=#ff0000;" edge="1" parent="1">
          <mxGeometry width="50" height="50" relative="1" as="geometry">
            <mxPoint x="-310" y="150" as="sourcePoint" />
            <mxPoint x="-250" y="150" as="targetPoint" />
          </mxGeometry>
        </mxCell>
        <mxCell id="OcjlMs63i2m_CkLZo7GT-93" value="" style="endArrow=classic;dashed=1;html=1;dashPattern=1 3;strokeWidth=2;rounded=0;startArrow=none;startFill=0;endFill=1;fillColor=#ffe6cc;strokeColor=#ffb700;" edge="1" parent="1">
          <mxGeometry width="50" height="50" relative="1" as="geometry">
            <mxPoint x="-310" y="190" as="sourcePoint" />
            <mxPoint x="-250" y="190" as="targetPoint" />
          </mxGeometry>
        </mxCell>
        <mxCell id="OcjlMs63i2m_CkLZo7GT-94" value="" style="endArrow=classic;html=1;rounded=0;endFill=1;" edge="1" parent="1">
          <mxGeometry width="50" height="50" relative="1" as="geometry">
            <mxPoint x="-310" y="69.5" as="sourcePoint" />
            <mxPoint x="-250" y="69.5" as="targetPoint" />
          </mxGeometry>
        </mxCell>
      </root>
    </mxGraphModel>
  </diagram>
</mxfile>
